<?xml version="1.0" standalone="no"?>
<!DOCTYPE svg PUBLIC "-//W3C//DTD SVG 20010904//EN"
 "http://www.w3.org/TR/2001/REC-SVG-20010904/DTD/svg10.dtd">
<svg version="1.0" xmlns="http://www.w3.org/2000/svg"
 width="2000.000000pt" height="2000.000000pt" viewBox="0 0 2000.000000 2000.000000"
 preserveAspectRatio="xMidYMid meet">
<metadata>
Created by potrace 1.14, written by Peter Selinger 2001-2017
</metadata>
<g transform="translate(0.000000,2000.000000) scale(0.100000,-0.100000)"
fill="#000000" stroke="none">
<path d="M1118 16273 c0 -5 -2 -1724 -3 -3821 l-1 -3813 50 1 c28 0 83 0 121
1 39 0 77 0 85 0 8 0 41 -1 73 -1 31 -1 61 2 66 5 5 3 12 1 15 -4 4 -5 21 -5
43 -1 20 5 41 7 45 4 4 -3 38 -5 76 -4 37 1 81 1 97 0 109 -4 205 -4 205 0 0
3 44 4 97 2 125 -4 195 -2 205 4 4 3 8 2 8 -3 0 -4 38 -8 85 -8 47 0 85 2 85
5 0 3 44 4 97 2 144 -4 193 -3 203 3 5 3 11 2 13 -2 3 -5 46 -6 96 -3 50 3
100 3 111 0 11 -3 44 -4 73 -2 l52 4 0 1524 c0 839 2 1529 5 1532 3 4 656 8
1451 8 1296 0 1446 -2 1442 -16 -3 -8 -16 -38 -29 -65 -12 -28 -24 -57 -26
-65 -2 -8 -7 -18 -13 -22 -5 -4 -10 -11 -10 -15 -1 -4 -6 -18 -13 -29 -6 -12
-8 -24 -5 -28 3 -3 1 -6 -5 -6 -7 0 -12 -8 -12 -18 0 -10 -4 -22 -9 -27 -4 -6
-23 -44 -42 -85 -18 -41 -37 -77 -41 -80 -4 -3 -9 -15 -11 -27 -1 -12 -9 -29
-17 -39 -8 -9 -14 -19 -12 -21 1 -1 -9 -26 -23 -54 -13 -29 -22 -56 -19 -60 3
-5 -2 -9 -11 -9 -9 0 -14 -4 -11 -9 3 -4 -10 -39 -29 -77 -19 -38 -35 -75 -35
-81 0 -7 -5 -13 -10 -13 -6 0 -9 -3 -8 -7 2 -8 -8 -30 -63 -148 -18 -38 -34
-77 -35 -85 -2 -8 -8 -16 -13 -18 -6 -2 -11 -11 -11 -20 0 -9 -7 -26 -15 -36
-8 -11 -15 -28 -15 -38 0 -10 -4 -18 -10 -18 -5 0 -10 -9 -10 -19 0 -11 -5
-23 -10 -26 -6 -4 -8 -11 -5 -16 4 -5 3 -9 -2 -9 -4 0 -14 -15 -22 -32 -8 -18
-31 -69 -52 -113 -21 -44 -39 -87 -41 -95 -2 -8 -5 -17 -8 -20 -5 -4 -31 -57
-35 -70 -7 -21 -58 -126 -64 -130 -4 -3 -6 -12 -6 -20 0 -8 -2 -17 -5 -20 -14
-12 -104 -210 -102 -222 1 -5 -2 -8 -8 -8 -5 0 -10 -5 -10 -11 0 -5 -18 -48
-40 -95 -22 -47 -40 -89 -40 -95 0 -5 -5 -9 -12 -9 -6 0 -8 -3 -5 -6 4 -4 -2
-23 -12 -43 -31 -60 -55 -116 -53 -123 1 -5 -2 -8 -8 -8 -5 0 -10 -4 -10 -9 0
-9 -29 -73 -103 -231 -17 -36 -30 -68 -29 -72 1 -5 -2 -8 -8 -8 -6 0 -10 -3
-9 -7 2 -16 -14 -53 -23 -53 -5 0 -6 -5 -2 -11 3 -6 1 -15 -5 -19 -7 -4 -14
-13 -15 -21 -6 -27 -49 -119 -56 -119 -4 0 -7 -6 -7 -12 0 -7 -9 -32 -21 -56
l-20 -42 41 0 c23 1 84 0 135 -2 50 -2 92 -1 92 2 0 3 44 4 97 2 54 -1 127 -2
163 -2 92 1 89 1 153 0 31 -1 61 2 66 5 5 3 12 1 15 -4 4 -5 21 -5 43 -1 20 5
41 7 45 4 4 -3 38 -5 76 -4 37 1 81 1 97 0 109 -4 205 -4 205 0 0 3 44 4 97 2
125 -4 195 -2 205 4 4 3 8 2 8 -3 0 -4 38 -8 85 -8 47 0 85 2 85 5 0 3 44 4
97 2 108 -3 187 -3 200 -1 4 1 13 0 18 -1 6 -1 35 -1 65 0 43 1 59 6 72 23 9
12 16 24 16 27 -1 3 5 19 12 35 7 17 14 33 15 38 2 4 4 10 5 15 1 4 2 10 1 15
0 4 3 7 9 7 6 0 9 3 8 8 -1 4 7 27 18 52 10 25 18 48 16 53 -1 4 2 7 7 7 8 0
23 41 20 56 0 4 3 10 8 13 4 3 19 33 32 66 23 57 61 146 81 190 19 40 33 80
32 88 -1 4 2 7 8 7 6 0 9 3 8 8 -1 4 3 18 9 32 6 14 12 30 13 35 1 6 12 28 23
50 12 22 20 44 19 49 -2 5 5 17 14 27 9 11 14 19 9 19 -4 0 -1 7 6 17 8 9 13
18 12 19 -2 2 9 29 23 59 13 31 22 59 19 64 -2 5 2 12 11 15 8 3 13 10 9 15
-3 5 -1 12 5 16 6 4 8 11 5 16 -4 5 -2 9 3 9 8 0 13 11 27 60 1 3 11 28 24 55
22 48 31 70 63 145 8 19 23 53 33 76 l17 40 1669 0 1668 1 22 -51 c12 -28 31
-71 42 -96 11 -25 22 -54 24 -65 2 -10 8 -22 14 -26 6 -3 10 -8 9 -10 -2 -5
12 -40 43 -111 14 -32 23 -58 19 -58 -4 0 -2 -4 3 -8 6 -4 26 -45 44 -92 19
-47 38 -89 43 -94 4 -6 8 -18 8 -28 0 -10 5 -18 11 -18 6 0 9 -6 6 -12 -2 -7
4 -24 13 -38 10 -14 18 -28 19 -32 3 -24 8 -37 54 -140 14 -31 23 -59 19 -62
-3 -3 0 -6 6 -6 7 0 11 -3 10 -7 0 -5 7 -26 17 -48 31 -71 38 -90 37 -97 -1
-5 2 -8 8 -8 6 0 9 -3 8 -7 -1 -5 8 -30 20 -57 12 -27 22 -51 22 -53 0 -2 11
-29 25 -59 14 -30 25 -56 25 -58 0 -3 10 -26 22 -53 12 -26 21 -51 20 -56 -1
-4 2 -7 8 -7 6 0 9 -3 9 -7 -3 -20 3 -34 22 -52 16 -15 27 -17 44 -11 13 5 25
6 28 4 4 -5 40 -5 142 -4 11 1 46 0 78 0 31 -1 61 2 66 5 5 3 12 1 15 -4 4 -5
21 -5 43 -1 20 5 41 7 45 4 4 -3 38 -5 76 -4 37 1 81 1 97 0 109 -4 205 -4
205 0 0 3 44 4 97 2 125 -4 195 -2 205 4 4 3 8 2 8 -3 0 -4 38 -8 85 -8 47 0
85 2 85 5 0 3 44 4 97 2 144 -4 193 -3 203 3 5 3 11 2 13 -2 3 -5 46 -6 96 -3
50 3 101 3 113 0 13 -4 42 -3 66 0 23 4 44 4 46 1 2 -3 45 -4 95 -1 50 3 101
3 113 0 13 -4 42 -3 66 0 23 4 44 4 46 1 2 -3 45 -4 95 -1 50 3 101 2 113 -1
13 -3 39 -2 59 1 21 4 43 4 50 0 8 -4 24 -4 36 1 16 6 20 13 16 30 -5 17 -3
20 8 14 11 -7 12 -6 3 6 -6 8 -10 53 -9 104 1 50 -3 98 -8 109 -5 11 -5 16 0
13 12 -7 10 213 -2 232 -5 9 -4 12 2 8 12 -7 11 213 -2 232 -5 9 -4 12 2 8 12
-7 11 213 -2 232 -5 9 -4 12 2 8 6 -4 9 36 8 113 -2 79 1 117 8 113 6 -4 7 -1
1 8 -13 20 -14 160 -1 152 6 -4 7 -1 1 8 -13 20 -14 160 -1 152 6 -4 7 -1 1 8
-13 20 -14 160 -1 152 6 -4 7 -1 1 8 -13 20 -14 160 -1 152 6 -4 7 -1 1 8 -13
20 -14 160 -1 152 6 -4 7 -1 1 8 -13 20 -14 160 -1 152 6 -4 7 -1 1 8 -13 21
-13 160 0 152 8 -5 8 -3 0 8 -6 8 -10 38 -9 67 0 29 -3 55 -7 58 -5 3 -5 11
-1 17 11 17 11 149 0 171 -6 11 -5 16 0 13 6 -4 9 43 8 123 -2 94 0 128 9 123
7 -4 7 -2 -1 7 -6 7 -9 19 -6 28 5 11 3 13 -8 7 -11 -7 -12 -6 -2 7 7 8 9 19
5 23 -4 5 1 5 11 2 10 -4 21 -7 23 -7 2 0 4 -6 4 -12 1 -7 14 -24 30 -38 17
-13 30 -30 30 -38 0 -7 4 -10 10 -7 6 3 10 0 10 -7 0 -8 9 -20 19 -28 11 -7
18 -17 16 -20 -3 -4 7 -12 20 -18 14 -7 25 -16 25 -22 0 -15 26 -41 34 -33 3
4 6 0 6 -8 0 -8 9 -21 20 -29 11 -8 20 -18 20 -23 0 -4 15 -23 33 -41 57 -60
107 -117 107 -122 0 -3 15 -20 33 -38 17 -17 57 -61 87 -96 30 -34 63 -71 73
-82 9 -10 17 -23 17 -29 0 -5 4 -8 9 -5 5 3 17 -7 27 -22 9 -15 27 -36 38 -48
50 -50 94 -103 88 -108 -3 -3 2 -6 11 -6 9 0 17 -4 17 -9 0 -5 18 -28 40 -51
22 -23 40 -45 40 -47 0 -3 18 -22 40 -43 22 -21 40 -41 40 -44 0 -4 15 -21 33
-40 17 -18 43 -47 56 -64 13 -17 29 -29 35 -25 6 3 8 3 4 -1 -7 -8 13 -34 75
-98 20 -21 37 -41 37 -44 0 -4 26 -33 117 -130 18 -19 30 -34 27 -34 -3 0 14
-18 36 -40 22 -22 39 -40 36 -40 -2 0 12 -17 32 -39 71 -74 122 -134 122 -143
0 -4 5 -8 11 -8 6 0 17 -7 25 -15 12 -11 12 -15 2 -15 -7 0 -1 -8 12 -17 14
-9 31 -25 38 -35 7 -9 19 -23 27 -31 8 -8 11 -18 7 -22 -4 -5 -2 -5 5 -1 7 4
17 -2 23 -14 6 -11 26 -36 43 -54 18 -19 57 -62 87 -96 30 -35 72 -81 93 -103
20 -22 37 -41 37 -43 0 -4 50 -60 127 -143 29 -31 53 -62 53 -69 0 -7 4 -11 9
-8 5 3 15 -2 22 -11 12 -14 12 -16 -1 -9 -8 4 -5 -1 8 -10 12 -9 22 -23 22
-30 0 -8 3 -13 8 -12 10 4 82 -73 77 -82 -3 -4 5 -10 17 -13 12 -4 19 -9 16
-12 -3 -3 21 -33 53 -65 33 -33 59 -63 59 -66 0 -4 12 -19 28 -34 15 -15 36
-39 47 -53 11 -13 23 -23 28 -20 6 4 11 -11 8 -29 0 -4 8 -10 19 -13 11 -4 20
-11 20 -16 0 -17 53 -64 75 -66 18 -2 87 -3 140 -2 74 0 172 0 185 0 60 -2
113 0 120 4 5 3 11 2 13 -2 3 -5 46 -6 96 -3 50 3 101 3 113 0 13 -4 42 -3 66
0 23 4 44 4 46 1 2 -3 45 -4 95 -1 50 3 101 3 113 0 13 -4 42 -3 65 0 24 4 45
5 47 3 6 -7 166 -9 166 -3 0 3 44 4 97 2 54 -1 127 -2 163 -2 92 1 89 1 153 0
31 -1 61 2 66 5 5 3 12 1 15 -4 4 -5 21 -5 43 -1 20 5 41 7 45 4 4 -3 37 -5
73 -4 36 1 73 1 83 1 9 0 78 0 152 -1 74 0 143 1 153 3 10 2 40 0 67 -3 28 -4
50 -4 50 -1 0 3 23 4 52 2 l52 -3 -42 41 c-23 23 -40 41 -38 41 1 0 -41 45
-95 99 -54 54 -95 102 -92 105 4 3 1 6 -4 6 -6 0 -25 15 -42 33 -17 17 -74 77
-126 131 -52 55 -95 103 -95 108 0 4 -7 8 -15 8 -8 0 -15 4 -15 9 0 5 -33 42
-72 82 -40 40 -72 77 -71 81 2 5 -3 8 -11 8 -8 0 -18 9 -21 20 -4 11 -11 18
-16 15 -5 -4 -9 -2 -9 3 0 4 -53 63 -118 130 -65 67 -118 122 -117 122 1 0
-39 42 -89 93 -50 51 -107 111 -125 133 -19 21 -39 38 -43 37 -4 -2 -8 1 -8 6
0 5 -18 27 -39 49 -22 22 -37 43 -34 46 4 3 1 6 -6 6 -13 0 -91 79 -91 92 0 4
-6 8 -14 8 -8 0 -17 8 -20 18 -4 11 -17 25 -31 32 -13 7 -22 17 -19 21 2 4 -5
13 -16 19 -11 6 -18 15 -15 21 4 5 2 9 -3 9 -14 0 -52 36 -52 49 0 6 -8 11
-17 11 -9 0 -14 3 -11 6 7 6 -39 54 -52 54 -6 0 -10 4 -10 9 0 6 -27 37 -60
71 -33 34 -60 65 -60 71 0 5 -3 8 -7 7 -5 -2 -20 10 -35 25 -15 15 -25 27 -22
27 3 0 -1 7 -10 15 -8 8 -19 15 -25 15 -6 0 -11 5 -11 10 0 6 -47 58 -105 117
-57 58 -102 110 -99 115 3 5 1 7 -3 6 -8 -3 -163 148 -163 158 0 10 -39 42
-44 37 -3 -4 -6 -2 -6 4 0 6 -31 43 -70 82 -38 40 -70 75 -70 80 0 4 -11 14
-25 21 -13 7 -27 21 -30 31 -3 10 -15 21 -26 24 -10 4 -19 11 -19 16 0 6 -24
33 -52 62 -29 28 -52 54 -51 58 2 4 -6 11 -17 14 -11 4 -20 10 -20 14 0 4 -49
59 -110 121 -61 61 -110 116 -110 122 0 5 -5 6 -10 3 -6 -3 -10 1 -10 10 0 9
-4 13 -10 10 -5 -3 -10 0 -10 8 0 8 -7 18 -16 21 -17 7 -14 30 4 32 7 1 15 3
20 4 4 1 11 2 16 1 4 -1 15 4 24 11 13 11 14 11 7 -2 -4 -8 3 -5 17 8 13 12
27 20 30 17 5 -5 78 15 123 35 39 16 60 23 68 22 4 -1 7 3 7 9 0 5 5 7 10 4 6
-3 10 -1 10 5 0 6 4 9 8 6 5 -3 40 10 78 29 37 19 70 32 72 30 3 -2 11 3 19
11 8 8 19 12 24 9 5 -4 9 1 9 9 0 10 6 13 15 10 8 -4 15 -1 15 6 0 6 4 9 9 6
4 -3 19 3 32 14 12 12 33 23 46 26 13 4 23 10 23 15 0 5 7 9 15 9 8 0 15 4 15
10 0 5 3 9 8 8 14 -3 42 14 36 23 -3 5 -2 9 3 8 17 -3 53 14 47 22 -3 5 3 9
13 9 10 0 36 17 58 38 21 20 35 30 30 22 -9 -16 29 16 76 64 16 15 29 25 29
21 0 -5 16 8 35 28 19 20 35 34 35 32 0 -3 9 4 20 15 11 11 20 24 20 30 0 5 4
9 8 7 5 -1 33 25 63 57 30 33 69 75 87 93 18 19 30 38 27 43 -3 5 4 11 15 15
11 3 20 13 20 20 0 8 8 19 18 24 9 6 13 11 9 11 -5 0 -2 7 5 15 29 32 39 45
33 45 -3 0 3 10 15 22 11 12 20 28 20 35 0 7 4 13 9 13 5 0 13 10 17 23 4 12
10 24 14 27 14 10 131 260 126 269 -3 5 0 11 8 14 8 3 13 14 12 24 -2 10 4 24
11 32 8 8 12 22 10 32 -3 11 -1 19 3 19 5 0 12 15 16 33 4 17 9 35 10 40 1 4
2 8 4 10 5 6 12 45 14 74 0 17 4 29 9 26 4 -2 8 4 8 14 1 19 4 35 8 43 3 6 13
76 14 103 1 9 5 17 10 17 5 0 4 7 -3 15 -7 8 -8 15 -3 15 11 0 12 5 14 70 1
25 7 48 13 52 7 5 6 8 -4 8 -13 0 -13 1 0 10 11 7 11 10 2 10 -8 0 -10 5 -5
13 9 14 12 387 3 387 -3 0 -6 32 -8 72 -1 45 -6 75 -14 80 -10 6 -10 8 1 8 9
0 10 4 4 13 -8 10 -13 38 -16 95 0 6 -4 12 -8 12 -4 0 -7 10 -7 23 0 28 -6 55
-15 63 -4 4 -1 14 6 22 8 10 8 13 1 9 -7 -4 -15 0 -18 9 -4 10 -2 13 7 8 9 -6
9 -5 0 7 -7 9 -15 26 -17 40 -3 13 -5 25 -7 27 -1 1 -2 5 -4 10 -1 4 -5 15 -8
25 -4 9 -10 25 -14 35 -3 9 -5 23 -4 30 1 6 -3 12 -9 12 -6 0 -8 5 -5 10 3 6
1 10 -4 10 -6 0 -10 3 -10 8 5 27 -2 52 -13 46 -8 -5 -9 -2 -5 9 3 10 2 17 -3
17 -5 0 -7 7 -4 15 4 8 1 15 -5 15 -6 0 -16 12 -22 28 -21 56 -34 82 -42 82
-5 0 -5 5 -2 10 3 6 1 10 -6 10 -7 0 -9 3 -6 6 3 4 -3 18 -13 32 -11 13 -20
31 -20 38 0 8 -4 14 -9 14 -5 0 -16 15 -24 33 -9 17 -28 44 -42 60 -14 15 -22
27 -18 27 4 0 1 6 -8 13 -8 7 -27 29 -41 49 -13 21 -28 35 -31 31 -4 -3 -7 0
-7 7 0 13 -35 53 -128 143 -73 71 -91 87 -97 87 -3 0 -18 14 -33 30 -16 17
-33 30 -38 30 -5 0 -16 9 -24 20 -8 11 -20 20 -27 20 -6 0 -19 10 -27 22 -9
12 -16 18 -16 13 0 -4 -11 2 -25 15 -14 13 -25 19 -25 14 0 -5 -4 -4 -8 1 -9
14 -59 46 -100 66 -18 8 -29 18 -25 22 3 4 -6 7 -21 7 -15 0 -25 4 -22 8 2 4
-4 14 -16 21 -11 7 -17 8 -14 3 3 -6 -5 -5 -19 1 -14 7 -25 15 -25 20 0 4 -5
7 -11 7 -6 0 -40 14 -75 30 -35 17 -66 30 -70 30 -3 -1 -12 7 -20 17 -8 12
-13 13 -14 5 0 -10 -5 -10 -22 2 -12 9 -30 16 -40 16 -10 0 -18 5 -18 10 0 6
-11 10 -25 10 -14 0 -25 5 -25 11 0 6 -7 9 -15 5 -8 -3 -20 0 -27 7 -7 7 -24
13 -37 14 -13 1 -27 6 -30 11 -3 5 -14 8 -23 6 -10 -1 -20 2 -24 7 -3 5 -9 7
-14 4 -5 -3 -11 -1 -15 4 -3 6 -13 7 -22 4 -9 -4 -14 -2 -11 3 4 5 -4 10 -15
11 -21 2 -56 9 -67 13 -3 1 -9 2 -14 1 -4 -1 -13 2 -20 8 -6 5 -27 11 -46 14
-19 3 -48 9 -65 13 -16 3 -38 6 -47 6 -10 0 -18 3 -18 7 0 4 -6 8 -12 8 -7 1
-32 2 -55 4 -23 1 -41 5 -39 8 2 3 -19 7 -46 8 -28 1 -55 6 -61 12 -7 7 -16 7
-29 0 -10 -5 -18 -6 -18 -2 0 5 -12 9 -27 9 -24 1 -71 7 -148 17 -11 2 -26 -1
-32 -6 -8 -6 -13 -6 -13 1 0 5 -9 12 -20 15 -11 3 -18 1 -15 -3 6 -10 -15 -8
-32 3 -8 5 -13 4 -13 -2 0 -6 -5 -11 -11 -11 -5 0 -7 4 -4 10 4 6 -600 10
-1707 10 l-1713 0 0 -2190 c0 -1204 -3 -2190 -7 -2190 -4 0 -10 10 -13 23 -4
12 -20 49 -35 82 -37 76 -54 118 -52 128 1 4 -2 7 -7 7 -10 0 -37 69 -33 83 1
4 -2 7 -7 7 -5 0 -13 10 -16 21 -4 12 -32 73 -61 137 -88 185 -98 207 -99 212
0 3 -6 15 -13 28 -7 12 -9 22 -5 22 4 0 4 4 -2 8 -15 10 -35 49 -35 67 0 8 -4
15 -10 15 -5 0 -10 9 -10 20 0 11 -4 20 -10 20 -5 0 -10 8 -10 18 0 10 -7 27
-15 38 -8 12 -11 24 -8 28 3 3 1 6 -5 6 -7 0 -12 5 -12 11 0 5 -11 34 -24 62
-13 29 -40 88 -61 132 -20 44 -45 98 -56 121 -10 22 -19 46 -19 52 0 7 -4 12
-10 12 -5 0 -10 5 -10 10 0 9 -14 42 -86 195 -10 22 -17 43 -16 48 1 4 -2 7
-8 7 -5 0 -10 5 -10 11 0 6 -14 41 -32 78 -18 36 -33 68 -33 71 0 3 -15 34
-32 70 -76 160 -103 220 -103 230 0 5 -4 10 -10 10 -5 0 -10 7 -10 16 0 9 -10
35 -21 58 -12 22 -28 53 -36 69 -8 15 -11 27 -6 27 4 0 3 4 -2 8 -6 4 -21 32
-35 62 -14 30 -27 57 -30 60 -3 3 -6 10 -7 15 -1 6 -21 53 -46 105 -25 52 -56
121 -71 152 -14 32 -41 91 -60 130 -114 243 -130 280 -128 291 1 4 -2 7 -7 7
-5 0 -12 10 -16 23 -9 26 -6 19 -35 82 -13 28 -25 52 -25 55 -1 3 -13 29 -28
59 -15 30 -27 61 -27 68 0 7 -4 13 -10 13 -5 0 -10 5 -10 11 0 6 -18 48 -40
94 -22 46 -40 85 -40 88 0 13 -85 183 -95 189 -5 4 -7 8 -2 8 4 0 -3 19 -15
43 -12 23 -23 44 -23 47 -1 3 -7 18 -13 33 -7 16 -12 33 -12 38 0 5 -5 9 -10
9 -6 0 -9 3 -8 8 1 4 -10 32 -24 62 -66 139 -101 215 -103 220 0 3 -14 32 -30
65 -16 33 -28 63 -27 68 1 4 -417 7 -929 7 -949 0 -949 0 -958 -35 -2 -5 -14
-34 -27 -63 -13 -29 -24 -57 -24 -62 0 -6 -5 -10 -10 -10 -6 0 -9 -3 -8 -7 2
-11 -11 -40 -75 -176 -30 -63 -61 -131 -68 -151 -7 -20 -17 -36 -22 -36 -4 0
-5 -4 -2 -10 3 -5 1 -10 -4 -10 -6 0 -10 -3 -9 -7 1 -5 -3 -18 -10 -29 -6 -12
-8 -24 -5 -28 3 -3 1 -6 -5 -6 -7 0 -12 -3 -11 -7 2 -16 -14 -53 -22 -53 -5 0
-9 -7 -9 -15 0 -18 -31 -85 -40 -85 -4 0 -7 -6 -7 -12 -1 -24 -8 -42 -25 -61
-9 -11 -14 -25 -11 -33 3 -8 1 -14 -5 -14 -6 0 -13 -13 -17 -30 -4 -16 -11
-30 -16 -30 -5 0 -8 -3 -7 -7 4 -14 -13 -53 -23 -53 -5 0 -8 -3 -7 -8 4 -10
-34 -95 -45 -103 -5 -3 -8 -9 -8 -13 1 -3 0 -8 0 -11 -7 -28 -21 -59 -30 -65
-4 -3 -9 -14 -11 -25 -1 -11 -7 -23 -11 -26 -5 -3 -9 -13 -11 -21 -1 -8 -10
-27 -19 -41 -10 -15 -15 -27 -12 -27 3 0 -11 -33 -32 -72 -21 -40 -38 -76 -39
-80 -1 -5 -3 -11 -4 -15 -1 -5 -2 -11 -1 -15 0 -5 -4 -8 -9 -8 -6 0 -10 -4
-10 -9 0 -8 -26 -65 -115 -256 -16 -33 -29 -62 -30 -65 -1 -3 -15 -34 -32 -70
-17 -36 -33 -75 -37 -87 -4 -13 -12 -23 -17 -23 -5 0 -9 -7 -9 -16 0 -8 -13
-42 -29 -75 -17 -32 -27 -59 -23 -59 4 0 2 -4 -4 -8 -5 -4 -18 -25 -28 -47
-10 -22 -26 -56 -36 -77 -10 -20 -16 -39 -13 -42 4 -3 2 -6 -4 -6 -10 0 -19
-20 -28 -59 -2 -7 -8 -18 -14 -24 -6 -6 -11 -19 -11 -29 0 -10 -4 -18 -9 -18
-5 0 -13 -10 -16 -22 -4 -13 -18 -48 -32 -78 -14 -30 -42 -89 -60 -130 -19
-41 -47 -100 -61 -130 -15 -30 -27 -57 -27 -60 0 -3 -9 -22 -19 -42 -16 -33
-23 -38 -55 -38 -46 -1 -3539 -1 -3566 0 -20 0 -20 4 -20 742 l0 743 1985 1
c1092 1 1994 3 2005 4 11 1 16 3 10 6 -7 3 -10 267 -9 769 l1 765 -2993 0
c-1647 0 -2995 -3 -2996 -7z m13077 -1388 c11 0 28 3 37 7 10 5 20 3 24 -4 5
-7 3 -8 -6 -3 -9 5 -11 4 -6 -4 5 -8 12 -9 19 -3 7 5 26 9 42 8 17 -1 40 2 53
6 13 5 21 4 18 -1 -4 -5 12 -7 34 -5 31 3 39 1 34 -9 -6 -9 -4 -9 7 -1 19 14
61 16 53 2 -5 -7 -2 -8 7 -2 18 11 79 12 79 0 0 -5 7 -3 15 4 11 9 15 9 15 1
0 -9 5 -9 20 -1 12 7 20 7 20 1 0 -10 32 -7 49 4 5 3 12 1 15 -4 6 -9 42 -13
114 -12 17 0 32 -5 32 -10 0 -6 8 -6 20 1 13 7 20 7 20 1 0 -6 14 -9 30 -7 17
2 30 1 30 -3 0 -3 12 -7 28 -8 15 -1 45 -5 67 -9 22 -4 48 -7 58 -7 9 -1 17
-5 17 -9 0 -4 8 -7 18 -7 30 0 57 -6 63 -14 3 -4 19 -9 35 -10 16 -1 32 -6 35
-10 3 -4 16 -9 27 -10 12 -1 22 -5 22 -10 0 -5 6 -7 14 -4 8 3 20 -1 27 -9 6
-8 14 -12 17 -9 3 2 11 -3 19 -13 8 -9 12 -12 9 -6 -6 13 69 -24 112 -54 16
-12 33 -18 37 -14 5 4 5 2 2 -4 -4 -6 5 -16 18 -22 14 -7 25 -16 25 -22 0 -6
4 -9 9 -6 4 3 19 -8 31 -24 13 -17 29 -30 36 -30 8 0 13 -3 13 -7 -3 -18 2
-34 9 -30 4 3 13 -1 20 -9 7 -8 9 -14 5 -14 -4 -1 3 -10 16 -20 13 -11 20 -20
16 -20 -5 0 0 -9 10 -20 10 -11 15 -20 11 -20 -4 0 2 -10 14 -22 11 -12 20
-30 20 -40 0 -10 5 -18 10 -18 6 0 10 -6 9 -12 -1 -7 5 -29 14 -48 8 -19 13
-38 11 -42 -3 -5 -1 -8 5 -8 5 0 8 -9 6 -20 -2 -11 3 -26 11 -34 9 -9 10 -17
4 -21 -6 -4 -8 -11 -4 -16 6 -11 16 -66 16 -91 -1 -10 4 -20 9 -23 5 -4 6 -12
2 -18 -10 -17 -11 -47 -2 -47 5 0 4 -11 -1 -25 -7 -17 -6 -25 1 -25 8 0 7 -5
-1 -15 -8 -10 -9 -15 -1 -15 7 0 8 -8 1 -25 -6 -17 -6 -25 1 -25 6 0 7 -6 2
-12 -4 -7 -8 -33 -9 -57 -2 -24 -8 -48 -16 -52 -10 -7 -10 -9 0 -9 9 0 10 -5
4 -17 -5 -10 -7 -24 -5 -30 3 -7 -1 -13 -9 -13 -10 0 -9 -3 2 -10 9 -6 10 -10
3 -10 -6 0 -11 -8 -11 -17 0 -10 -5 -31 -12 -48 -7 -16 -12 -34 -11 -39 1 -4
-4 -14 -10 -22 -6 -8 -8 -14 -5 -14 4 0 0 -7 -8 -16 -9 -8 -14 -20 -11 -25 4
-5 2 -9 -3 -9 -5 0 -17 -16 -26 -35 -9 -19 -21 -35 -27 -35 -6 0 -8 -4 -4 -9
6 -10 -117 -138 -180 -187 -22 -17 -50 -34 -63 -38 -12 -4 -22 -12 -22 -18 0
-6 -3 -8 -7 -5 -3 4 -15 -1 -26 -10 -10 -10 -21 -17 -23 -15 -2 1 -18 -5 -34
-13 -17 -9 -35 -13 -39 -10 -5 3 -11 0 -13 -5 -2 -6 -12 -12 -21 -14 -10 -1
-22 -8 -27 -15 -5 -10 -9 -10 -15 -2 -5 9 -11 9 -22 0 -13 -11 -26 -15 -70
-21 -7 -1 -13 -5 -13 -9 0 -4 -8 -6 -17 -4 -10 1 -22 0 -28 -4 -10 -6 -14 -7
-50 -13 -11 -2 -26 -7 -32 -11 -7 -5 -13 -4 -13 1 0 5 -17 4 -37 -3 -29 -10
-40 -10 -45 -2 -5 9 -8 8 -8 -2 0 -8 -3 -11 -6 -8 -4 3 -16 2 -27 -4 -15 -9
-18 -8 -11 3 6 10 5 11 -7 2 -8 -6 -38 -10 -66 -10 -29 1 -53 -2 -53 -6 0 -5
-10 -6 -22 -4 -13 2 -35 0 -50 -5 -18 -5 -29 -3 -32 4 -3 8 -7 9 -13 2 -7 -9
-90 -12 -391 -15 -32 0 -41 -3 -36 -12 4 -7 -2 -4 -14 6 -12 11 -22 15 -22 10
0 -7 -140 -10 -160 -3 -3 1 -8 1 -13 0 -4 -1 -5 13 -2 30 4 21 2 28 -6 24 -8
-5 -8 -2 -2 11 5 11 8 31 7 47 -2 19 1 25 9 20 9 -5 9 -3 1 8 -6 8 -10 49 -9
94 1 44 -3 88 -8 99 -5 11 -5 16 0 13 12 -7 10 213 -2 232 -5 9 -4 12 2 8 6
-4 9 36 8 113 -2 79 1 117 8 113 6 -4 7 -1 1 8 -13 20 -14 160 -1 152 6 -4 7
-1 1 8 -13 20 -14 160 -1 152 6 -4 7 -1 1 8 -13 20 -14 160 -1 152 6 -4 7 -1
1 8 -13 20 -14 160 -1 152 6 -4 7 -1 1 8 -13 20 -14 160 -1 152 6 -4 7 -1 1 8
-13 20 -14 160 -1 152 6 -4 7 -1 1 8 -14 22 -15 80 -1 72 9 -5 9 -3 1 8 -8 11
-12 101 -5 130 2 8 94 5 108 -4 9 -6 11 -3 6 9 -5 13 -3 15 8 9 8 -5 23 -9 34
-10z m-5079 -1044 c48 -106 50 -110 73 -164 11 -26 20 -50 20 -52 0 -3 8 -20
18 -38 9 -17 18 -34 18 -37 0 -3 6 -15 13 -26 6 -12 8 -24 5 -28 -3 -3 -1 -6
5 -6 7 0 12 -5 12 -11 0 -16 83 -203 93 -210 4 -3 7 -10 6 -15 -1 -5 10 -35
24 -67 15 -32 27 -62 27 -67 0 -6 4 -10 8 -10 5 0 9 -6 9 -12 0 -7 12 -38 26
-68 28 -63 62 -139 84 -190 28 -66 55 -125 70 -152 8 -16 11 -28 7 -28 -4 0 1
-9 11 -20 10 -11 15 -20 12 -20 -5 0 8 -31 78 -185 39 -85 53 -119 60 -142 3
-13 11 -23 16 -23 6 0 8 -3 6 -8 -3 -4 3 -25 14 -46 10 -22 19 -46 19 -53 0
-7 5 -13 10 -13 6 0 10 -6 10 -13 0 -8 6 -27 14 -43 23 -45 39 -88 38 -96 -1
-5 2 -8 8 -8 6 0 9 -3 8 -7 -1 -5 6 -25 15 -45 9 -21 25 -55 34 -75 9 -21 16
-41 15 -45 -1 -5 3 -8 9 -8 5 0 8 -4 4 -9 -3 -5 -1 -12 5 -16 5 -3 10 -15 10
-26 0 -10 5 -19 12 -19 6 0 8 -3 5 -7 -4 -3 -2 -12 4 -20 13 -15 17 -14 -89
-17 -41 0 -76 2 -79 7 -2 4 -9 4 -16 0 -15 -9 -218 -10 -224 0 -2 4 -9 4 -15
1 -16 -10 -699 -11 -705 -1 -2 4 -9 4 -16 0 -15 -9 -218 -10 -224 0 -2 4 -9 4
-15 1 -17 -11 -118 -12 -118 -2 0 5 -6 6 -12 1 -17 -10 -88 -11 -94 -1 -3 5
-10 5 -16 2 -16 -10 -98 -12 -104 -2 -3 5 -10 5 -16 2 -16 -10 -98 -12 -104
-2 -3 4 -13 4 -22 0 -14 -7 -39 -8 -96 -3 -5 1 -3 7 3 15 7 8 14 24 16 36 2
13 12 31 21 41 10 11 14 19 11 19 -6 0 25 74 66 160 12 25 22 47 23 50 0 3 6
18 12 33 7 16 12 33 12 38 0 5 6 12 13 14 6 3 13 17 14 31 0 15 6 30 13 34 6
4 11 9 10 11 -1 2 4 18 11 34 7 17 13 32 14 35 4 13 25 61 51 115 15 33 29 62
29 65 4 13 28 69 48 110 12 25 22 47 23 50 12 38 18 50 25 50 5 0 6 7 3 15 -4
8 -1 15 7 15 7 0 9 3 6 6 -3 4 -1 16 5 28 7 11 13 23 14 26 0 3 11 28 24 55
13 28 23 56 23 63 0 6 4 12 9 12 4 0 8 6 8 14 0 8 6 21 13 28 6 7 13 22 15 33
2 11 12 35 23 53 11 19 17 38 14 43 -4 5 -1 9 4 9 6 0 11 5 11 11 0 5 12 36
26 67 14 31 32 71 39 87 8 17 28 62 45 100 18 39 33 75 34 80 1 6 12 31 24 57
12 26 22 52 22 57 0 6 5 11 10 11 6 0 10 6 10 13 0 7 31 82 68 167 38 85 77
174 87 197 10 23 23 40 28 36 5 -3 24 -40 43 -82z"/>
<path d="M2420 7683 c0 -5 -23 -9 -51 -8 -27 1 -53 -3 -55 -7 -3 -5 -9 -6 -14
-3 -10 6 -104 -11 -138 -26 -15 -6 -21 -6 -17 1 3 5 -14 1 -39 -10 -26 -11
-46 -17 -46 -15 0 9 -114 -37 -198 -79 -119 -58 -132 -66 -132 -75 0 -5 -11
-12 -25 -15 -14 -4 -25 -11 -25 -16 0 -6 -7 -10 -15 -10 -8 0 -15 -4 -15 -9 0
-5 -9 -13 -20 -16 -11 -4 -18 -11 -15 -16 4 -5 0 -9 -7 -9 -20 0 -177 -166
-222 -235 -22 -33 -43 -62 -47 -65 -11 -8 -112 -221 -112 -236 0 -8 -3 -14 -7
-14 -4 0 -7 -7 -8 -15 -1 -8 -3 -22 -4 -30 -1 -8 -4 -15 -8 -15 -3 0 -7 -8 -8
-17 -2 -20 -7 -41 -14 -63 -25 -74 -26 -80 -16 -74 7 5 8 2 2 -7 -4 -8 -9 -21
-11 -29 -12 -82 -16 -117 -18 -192 -1 -47 -5 -91 -9 -96 -3 -6 0 -13 6 -15 10
-4 9 -8 -2 -16 -8 -6 -10 -11 -5 -11 6 0 11 -21 11 -48 1 -26 4 -67 8 -92 3
-25 8 -61 10 -80 2 -19 4 -35 6 -35 1 0 3 -11 6 -25 2 -14 7 -36 10 -50 3 -14
6 -27 6 -30 0 -3 3 -9 8 -15 4 -5 6 -18 5 -27 -2 -10 1 -18 5 -18 5 0 12 -15
15 -32 4 -18 16 -50 26 -70 11 -21 16 -38 13 -38 -4 0 0 -8 8 -17 8 -10 23
-37 33 -60 10 -24 22 -43 27 -43 4 0 8 -6 8 -13 0 -20 109 -165 176 -232 49
-51 104 -99 169 -148 32 -24 87 -57 95 -57 6 0 10 -4 10 -8 0 -4 29 -21 65
-37 36 -16 65 -33 65 -37 0 -5 5 -6 10 -3 6 4 16 3 23 -2 27 -21 195 -72 247
-76 19 -1 37 -5 40 -8 3 -4 32 -9 65 -13 33 -4 69 -8 80 -9 11 -2 26 -7 34
-11 10 -6 12 -5 7 2 -9 14 -5 15 27 3 13 -5 30 -5 37 -1 8 5 19 6 24 3 9 -6
62 -8 69 -3 1 1 25 3 52 4 79 4 159 17 173 28 8 7 12 7 12 0 0 -8 12 -7 38 2
20 7 55 16 77 20 22 4 46 12 53 18 6 6 12 8 12 5 0 -7 133 49 195 82 178 95
320 216 445 380 14 18 30 39 37 46 7 7 9 15 6 19 -4 3 -1 6 6 6 7 0 9 5 6 10
-3 6 -2 10 3 10 10 0 111 201 128 255 14 43 19 112 18 250 -1 107 2 162 10
167 8 6 8 8 0 8 -9 0 -12 36 -11 122 l1 123 -291 0 c-182 1 -289 -3 -286 -9 4
-5 1 -6 -8 0 -21 13 -632 13 -641 0 -5 -8 -8 -8 -8 0 0 6 -36 9 -102 8 -57 -1
-106 -2 -109 -3 -4 -1 -3 -19 1 -41 4 -22 4 -42 1 -44 -7 -5 -5 -81 3 -102 2
-6 2 -15 -1 -18 -3 -3 -5 -64 -5 -137 1 -136 7 -157 42 -143 8 4 20 6 25 6 6
0 47 -2 93 -5 45 -2 82 0 82 5 0 5 5 6 12 2 18 -12 81 -12 96 -1 7 5 12 6 12
0 0 -5 9 -9 20 -10 11 -1 20 3 20 8 0 6 5 7 12 3 17 -11 148 -12 148 -1 0 4 5
5 12 1 18 -12 81 -12 96 -1 7 5 12 6 12 0 0 -5 9 -9 20 -10 11 -1 20 3 20 9 0
6 5 7 13 1 6 -5 33 -8 60 -8 26 1 47 -2 47 -5 0 -3 -10 -26 -22 -51 -12 -24
-23 -49 -24 -55 -2 -15 -56 -97 -69 -106 -5 -4 -7 -8 -3 -8 11 0 -91 -101
-132 -131 -83 -61 -199 -105 -305 -114 -27 -2 -67 -6 -88 -9 -20 -2 -40 0 -43
5 -3 5 -13 5 -25 -1 -10 -6 -19 -7 -19 -3 0 4 -17 9 -38 9 -59 2 -127 14 -130
23 -2 5 -12 7 -22 4 -12 -3 -20 0 -20 6 0 7 -5 9 -10 6 -6 -4 -18 -1 -27 7 -9
7 -19 12 -22 12 -24 -5 -150 77 -213 138 -73 72 -112 140 -174 303 -10 29 -13
44 -19 95 -2 25 -5 45 -6 45 -8 0 -13 244 -5 280 2 11 5 20 6 20 1 0 3 16 5
35 5 43 10 67 23 101 6 15 8 30 5 33 -4 3 -1 6 5 6 7 0 11 4 9 9 -3 12 36 101
46 101 4 0 7 6 7 14 0 7 7 19 15 26 9 7 13 15 10 18 -9 9 159 166 200 187 22
11 42 22 45 25 6 6 67 29 90 35 8 2 15 4 15 5 0 1 9 3 20 5 11 2 41 7 66 12
25 5 54 8 64 7 11 -2 23 2 27 9 4 7 8 8 8 2 0 -6 31 -10 73 -9 39 0 90 -5 112
-11 22 -6 45 -10 52 -8 6 2 14 -1 18 -6 3 -6 14 -11 22 -11 39 0 149 -68 210
-129 35 -35 63 -68 63 -73 0 -25 31 -37 102 -39 41 -1 80 1 87 5 6 4 11 2 11
-5 0 -8 3 -9 13 0 8 6 16 8 19 5 7 -6 268 -11 268 -4 0 3 32 3 71 0 39 -3 73
-2 76 2 2 5 10 5 16 1 12 -7 76 -5 89 3 4 3 1 19 -7 37 -7 17 -13 34 -13 37
-2 23 -74 187 -105 235 -70 111 -85 131 -162 209 -76 77 -110 105 -160 136
-22 13 -42 26 -45 29 -10 11 -124 70 -180 94 -82 34 -92 37 -100 32 -5 -3 -10
0 -12 5 -2 6 -13 12 -26 13 -12 0 -22 6 -22 12 0 5 -4 4 -9 -3 -7 -11 -10 -11
-22 0 -8 7 -21 14 -29 14 -8 0 -35 4 -60 9 -25 5 -53 10 -62 11 -10 1 -19 2
-20 3 -2 1 -26 3 -53 5 -28 1 -56 5 -63 10 -7 4 -12 2 -12 -4 0 -6 -5 -8 -11
-4 -19 12 -99 12 -99 0 0 -7 -3 -7 -8 -1 -9 13 -52 15 -52 2 0 -5 -7 -4 -15 3
-8 7 -15 8 -15 3z"/>
<path d="M10150 7680 c0 -4 -20 -7 -45 -6 -25 1 -45 -2 -45 -6 0 -5 -8 -8 -18
-8 -19 0 -127 -26 -152 -37 -8 -3 -19 -7 -25 -8 -5 -1 -13 -3 -17 -5 -5 -1
-11 -3 -15 -5 -10 -2 -38 -14 -83 -33 -19 -8 -38 -14 -42 -14 -5 1 -8 -2 -8
-7 0 -7 -26 -20 -52 -25 -4 0 -16 -8 -27 -17 -10 -10 -28 -20 -40 -24 -12 -3
-21 -11 -21 -16 0 -5 -5 -9 -10 -9 -11 0 -105 -67 -154 -110 -43 -37 -126
-120 -121 -120 2 0 -7 -12 -22 -27 -42 -46 -85 -103 -77 -103 4 0 -3 -9 -16
-20 -13 -11 -20 -20 -15 -20 4 0 -4 -15 -18 -34 -15 -18 -24 -36 -21 -38 2 -3
-2 -11 -11 -18 -8 -7 -15 -19 -15 -26 0 -8 -5 -14 -11 -14 -5 0 -8 -4 -5 -8 3
-5 -4 -23 -15 -40 -10 -18 -19 -37 -19 -42 0 -5 -5 -21 -12 -37 -13 -34 -12
-29 -38 -123 -21 -78 -24 -91 -39 -200 -10 -70 -7 -359 4 -400 3 -14 8 -36 10
-50 3 -24 5 -34 22 -105 4 -16 7 -32 8 -35 12 -62 118 -301 137 -308 4 -2 8
-8 8 -13 0 -22 89 -144 158 -216 23 -25 42 -50 42 -56 0 -6 3 -8 6 -5 3 3 20
-8 38 -26 60 -57 106 -95 106 -88 0 4 4 2 8 -4 10 -15 189 -124 195 -118 2 2
10 -2 17 -11 7 -8 21 -15 30 -15 10 0 20 -4 22 -8 3 -7 184 -69 225 -77 10 -2
18 -4 18 -5 0 -1 9 -3 20 -4 17 -3 88 -14 120 -20 6 -1 15 -4 20 -8 6 -3 77
-6 159 -7 109 -2 146 1 141 9 -4 7 1 6 14 -2 14 -9 24 -10 29 -3 4 6 18 11 32
12 34 2 101 13 125 21 11 3 22 7 25 7 74 16 122 30 126 37 3 4 12 8 20 8 8 0
29 6 47 13 18 8 35 15 39 16 4 1 22 10 40 20 18 11 61 34 96 51 34 18 62 37
62 43 0 6 3 8 6 4 4 -3 12 -1 20 6 29 26 43 37 49 37 17 0 198 177 241 235 16
22 31 42 35 45 13 12 79 118 79 129 0 6 4 11 8 11 8 0 36 60 33 73 0 4 3 7 8
7 8 0 12 10 26 55 2 6 11 28 21 50 10 22 19 45 20 51 1 6 9 36 17 65 19 66 27
108 44 234 10 77 5 370 -7 370 -1 0 -3 18 -5 40 -1 22 -3 40 -5 40 -1 0 -4 14
-6 30 -3 17 -12 55 -21 85 -9 30 -18 60 -19 67 -1 7 -9 26 -18 44 -9 17 -13
35 -10 40 3 5 0 9 -5 9 -6 0 -11 9 -11 20 0 11 -4 20 -10 20 -5 0 -9 3 -8 8 3
10 -49 108 -83 159 -16 23 -29 44 -29 48 0 4 -6 12 -12 19 -7 7 -29 32 -48 57
-44 55 -152 162 -199 197 -20 15 -38 30 -41 33 -16 20 -216 132 -287 160 -13
5 -33 13 -45 18 -29 12 -118 40 -146 46 -12 3 -32 7 -44 10 -37 9 -101 18
-125 19 -13 0 -23 3 -23 6 0 4 -81 6 -180 6 -99 0 -180 -3 -180 -6z m300 -599
c3 -2 21 -5 40 -7 19 -3 49 -9 65 -14 17 -6 33 -10 37 -10 8 -1 93 -45 137
-71 39 -22 110 -86 141 -125 41 -52 68 -92 84 -124 26 -51 57 -136 59 -160 1
-11 5 -20 10 -20 5 0 7 -9 4 -20 -3 -11 -2 -20 2 -20 4 0 7 -10 6 -22 -1 -13
2 -33 6 -45 6 -16 5 -23 -4 -23 -8 0 -9 -2 -1 -8 17 -11 18 -180 2 -200 -11
-13 -11 -14 1 -8 10 6 12 4 8 -10 -8 -28 -21 -116 -20 -136 0 -10 -4 -18 -8
-18 -5 0 -8 -3 -7 -7 4 -16 -14 -73 -22 -73 -5 0 -7 -9 -5 -20 2 -11 0 -20 -4
-20 -9 0 -24 -38 -22 -52 1 -5 -3 -8 -8 -8 -5 0 -14 -13 -21 -30 -7 -16 -16
-30 -21 -30 -5 0 -9 -6 -9 -13 0 -21 -107 -124 -176 -169 -36 -24 -68 -43 -72
-43 -4 -1 -17 -6 -28 -13 -12 -6 -24 -8 -28 -5 -3 3 -6 2 -6 -4 0 -5 -6 -10
-12 -10 -7 -1 -42 -7 -78 -15 -36 -8 -78 -14 -93 -14 -15 1 -27 -3 -27 -9 0
-5 -4 -4 -9 4 -6 9 -11 10 -15 3 -4 -6 -12 -9 -19 -7 -7 2 -43 7 -82 9 -38 3
-90 10 -115 16 -54 12 -174 61 -178 72 -2 4 -10 8 -18 8 -8 0 -14 5 -14 10 0
6 -5 10 -12 10 -12 0 -19 6 -88 74 -53 52 -91 96 -83 96 3 0 -1 8 -9 18 -31
35 -107 212 -91 212 3 0 1 6 -4 13 -6 6 -10 19 -11 27 0 8 -4 35 -9 60 -13 75
-8 380 8 380 3 0 6 10 6 23 2 31 8 55 16 63 4 4 7 18 7 31 0 13 5 23 11 23 6
0 9 6 7 12 -3 7 7 33 22 58 14 25 29 53 33 63 3 9 11 17 17 17 6 0 9 4 5 9 -3
5 5 17 17 25 12 9 19 16 16 16 -10 0 50 59 97 96 39 30 155 95 185 103 109 29
167 37 265 35 61 0 112 -2 115 -3z"/>
<path d="M5504 7651 c-2 -2 -35 -3 -73 -2 -40 1 -72 -2 -76 -8 -3 -6 -2 -11 3
-11 10 0 10 -49 0 -66 -4 -6 -4 -14 -1 -18 11 -10 11 -56 1 -62 -4 -3 -5 -10
-2 -16 11 -18 10 -68 -1 -68 -7 0 -7 -3 0 -8 12 -8 13 -42 2 -60 -5 -6 -4 -12
0 -12 11 0 11 -41 0 -57 -4 -6 -4 -14 1 -17 10 -6 10 -66 -1 -82 -3 -6 -4 -14
0 -18 10 -10 9 -66 -2 -66 -7 0 -7 -3 0 -8 12 -8 13 -42 2 -60 -5 -6 -4 -12 0
-12 11 0 11 -41 0 -57 -4 -6 -4 -14 1 -17 10 -6 10 -66 -1 -82 -3 -6 -4 -14 0
-18 10 -10 9 -66 -2 -66 -7 0 -7 -3 0 -8 12 -8 13 -42 2 -60 -5 -6 -4 -12 0
-12 11 0 11 -41 0 -57 -4 -6 -4 -14 1 -17 10 -6 10 -66 -1 -82 -3 -6 -4 -14 0
-18 10 -10 9 -66 -2 -66 -7 0 -7 -3 0 -8 12 -8 13 -42 2 -60 -5 -6 -4 -12 0
-12 11 0 11 -41 0 -57 -4 -6 -4 -14 1 -17 10 -6 10 -66 -1 -82 -3 -6 -4 -14 0
-18 10 -10 9 -66 -2 -66 -7 0 -7 -3 0 -8 12 -8 13 -42 2 -60 -5 -6 -4 -12 0
-12 11 0 11 -41 0 -57 -4 -6 -4 -14 1 -17 10 -6 10 -66 -1 -82 -3 -6 -4 -14 0
-18 10 -10 9 -66 -2 -66 -7 0 -7 -3 0 -8 12 -8 13 -42 2 -60 -5 -6 -4 -12 0
-12 11 0 11 -41 0 -57 -4 -6 -4 -14 1 -17 10 -6 10 -66 -1 -82 -3 -6 -4 -14 0
-18 10 -10 9 -66 -2 -66 -7 0 -7 -3 0 -8 12 -8 13 -42 2 -60 -5 -6 -4 -12 0
-12 11 0 11 -41 0 -57 -4 -6 -4 -14 1 -17 10 -6 10 -66 -1 -82 -3 -6 -4 -14 0
-18 10 -10 9 -66 -2 -66 -7 0 -7 -3 0 -8 12 -8 13 -42 2 -60 -5 -6 -4 -12 0
-12 11 0 11 -41 0 -57 -4 -6 -3 -14 1 -17 5 -3 8 -21 7 -41 l-3 -35 332 2 331
3 0 508 c0 330 3 508 10 509 6 0 26 2 45 2 19 1 40 5 47 9 6 4 14 3 18 -2 3
-6 12 -8 20 -5 8 4 23 -9 39 -35 14 -22 26 -42 26 -45 0 -2 27 -51 60 -109 33
-59 60 -111 60 -117 0 -5 5 -10 10 -10 6 0 10 -6 10 -13 0 -7 13 -33 28 -58
16 -24 30 -48 32 -54 3 -10 15 -33 37 -70 7 -11 20 -36 30 -55 9 -19 22 -38
27 -42 6 -4 7 -8 2 -8 -5 0 -3 -7 4 -15 15 -18 52 -84 82 -145 12 -25 26 -46
30 -48 4 -2 8 -9 8 -17 0 -7 7 -18 15 -25 9 -7 13 -15 11 -18 -3 -3 3 -17 14
-32 11 -16 20 -31 20 -35 0 -4 9 -19 20 -35 11 -15 17 -30 13 -34 -3 -3 165
-6 375 -6 248 0 382 4 382 10 0 6 -4 10 -9 10 -5 0 -14 12 -20 28 -10 28 -42
83 -52 92 -3 3 -12 20 -20 38 -8 17 -17 32 -21 32 -5 0 -8 6 -8 14 0 7 -7 19
-15 26 -8 7 -12 16 -9 21 3 5 1 9 -4 9 -5 0 -13 8 -16 18 -8 21 -40 77 -53 94
-6 7 -22 33 -35 58 -14 25 -39 69 -56 98 -17 28 -28 52 -24 52 4 0 -1 5 -11
11 -9 6 -15 14 -12 20 4 5 2 9 -3 9 -5 0 -15 14 -22 30 -7 17 -17 30 -23 30
-6 0 -7 3 -4 6 4 4 -1 19 -11 33 -33 50 -42 66 -55 91 -7 14 -24 43 -37 65
-14 22 -32 54 -40 70 -8 17 -17 32 -20 35 -3 3 -16 22 -28 42 l-21 38 27 6
c15 4 32 9 37 13 6 3 15 6 21 7 29 5 137 64 199 111 88 66 102 78 146 133 30
37 122 189 120 197 0 3 0 6 20 68 7 22 14 49 14 60 1 11 4 27 8 35 4 8 8 47
10 85 2 39 7 76 11 83 4 7 4 12 -1 12 -4 0 -9 26 -11 58 -3 54 -8 97 -12 97
-1 0 -4 13 -6 29 -6 57 -88 246 -106 246 -5 0 -8 6 -8 14 0 29 -127 159 -204
210 -95 62 -233 125 -258 118 -5 -1 -8 2 -8 6 0 7 -16 11 -70 15 -14 1 -27 5
-30 9 -3 4 -27 9 -53 10 -26 2 -47 5 -47 8 0 3 -15 5 -34 5 -19 0 -64 2 -101
5 -36 3 -68 3 -70 0 -2 -4 -29 -3 -59 0 -33 4 -60 2 -66 -4 -6 -6 -10 -6 -10
0 0 10 -92 10 -109 0 -6 -4 -11 -4 -11 1 0 9 -174 8 -190 -2 -5 -3 -10 -3 -10
2 0 10 -93 8 -109 -1 -6 -4 -11 -4 -11 1 0 9 -215 8 -230 -2 -5 -3 -10 -3 -10
2 0 8 -138 12 -146 4z m1063 -564 c166 -44 249 -180 230 -372 -6 -54 -17 -96
-35 -122 -8 -13 -12 -23 -9 -23 4 0 -16 -23 -44 -51 -27 -27 -54 -47 -59 -44
-6 3 -10 1 -10 -4 0 -6 -9 -11 -20 -11 -11 0 -20 -4 -20 -9 0 -6 -9 -8 -20 -6
-11 2 -20 1 -20 -4 0 -9 -5 -10 -288 -13 l-242 -3 -1 25 c-3 87 -4 637 -1 643
5 9 504 4 539 -6z"/>
<path d="M13325 7650 l-80 -5 0 -125 c1 -76 -3 -128 -10 -132 -6 -5 -6 -8 0
-8 14 0 15 -952 0 -962 -6 -5 -6 -8 0 -8 6 0 10 -90 11 -248 1 -298 7 -357 50
-524 3 -13 6 -29 6 -35 1 -7 5 -13 10 -13 5 0 7 -4 3 -9 -3 -5 -1 -12 3 -15 5
-3 15 -26 22 -51 7 -25 17 -45 21 -45 5 0 9 -9 9 -20 0 -11 4 -20 8 -20 5 0
16 -15 25 -34 21 -44 106 -156 123 -163 8 -3 12 -9 9 -13 -3 -5 4 -11 15 -15
11 -3 20 -13 20 -21 0 -8 3 -14 8 -14 4 0 23 -14 42 -30 19 -16 38 -30 42 -30
4 0 13 -7 21 -15 21 -20 190 -105 210 -105 9 0 17 -4 17 -10 0 -5 12 -10 26
-10 16 0 23 -4 18 -12 -4 -7 -3 -8 4 -4 6 4 31 2 54 -5 24 -6 54 -13 68 -15
35 -6 71 -13 100 -21 36 -9 351 -13 346 -4 -3 4 7 7 22 6 15 0 41 2 57 7 17 4
42 10 58 13 15 3 39 7 55 10 49 10 174 57 251 95 94 46 163 96 246 177 62 59
173 203 157 203 -4 0 -2 4 4 8 16 10 68 114 66 130 -2 6 3 12 9 12 7 0 10 3 7
6 -4 3 0 20 7 39 8 18 11 35 8 39 -4 3 -1 6 5 6 6 0 9 9 7 20 -2 11 0 20 5 20
4 0 7 14 6 31 -1 17 3 33 10 36 6 2 10 13 7 24 -3 10 0 25 6 33 8 10 9 16 1
21 -6 3 -7 12 -3 18 5 7 8 410 9 897 l1 885 -26 6 c-14 3 -32 1 -38 -4 -7 -5
-13 -6 -13 -1 0 10 -92 10 -109 0 -6 -4 -11 -4 -11 1 0 9 -198 8 -207 -1 -3
-3 -15 0 -26 6 -12 6 -22 7 -24 2 -2 -6 -30 -7 -64 -4 -33 3 -62 4 -65 1 -3
-3 -23 -4 -45 -2 -37 2 -40 1 -34 -18 4 -13 2 -21 -5 -21 -6 0 -8 -5 -5 -10
11 -17 13 -110 3 -110 -5 0 -6 -5 -3 -10 11 -17 13 -110 3 -110 -5 0 -6 -5 -2
-11 10 -16 11 -389 1 -389 -5 0 -5 -5 -2 -10 11 -17 13 -110 3 -110 -5 0 -6
-5 -3 -10 11 -17 13 -110 3 -110 -5 0 -6 -5 -2 -11 10 -16 11 -389 1 -389 -5
0 -5 -5 -2 -10 11 -17 13 -110 3 -110 -5 0 -6 -5 -3 -10 11 -17 13 -110 3
-110 -5 0 -6 -6 -2 -12 5 -7 7 -38 5 -68 -3 -68 -8 -125 -11 -125 -1 0 -3 -11
-5 -25 -3 -33 -33 -106 -61 -150 -30 -49 -124 -141 -124 -122 0 4 -4 3 -8 -3
-16 -23 -100 -51 -177 -61 -11 -1 -20 -3 -20 -4 0 -1 -35 -3 -78 -3 -42 -1
-77 2 -77 7 0 5 -2 7 -6 4 -3 -3 -22 -2 -42 3 -20 6 -48 12 -62 15 -115 24
-247 184 -262 317 -1 9 -5 17 -8 17 -6 0 -8 45 -10 307 -1 111 1 207 4 212 4
5 2 13 -4 16 -8 5 -7 11 1 21 9 11 9 14 -1 14 -9 0 -10 3 -1 13 6 8 8 16 6 19
-6 6 -8 348 -3 354 2 2 1 29 -2 59 -3 31 -3 58 2 61 4 3 3 16 -2 29 -5 13 -6
26 -2 29 4 2 5 106 2 231 -3 125 -2 228 1 230 3 2 2 29 -1 60 -3 31 -3 58 1
60 3 3 4 15 2 29 -4 20 -12 25 -45 28 -22 2 -41 1 -43 -2 -2 -3 -33 -3 -70 0
-37 3 -69 2 -71 -2 -3 -5 -15 -3 -27 3 -13 8 -22 8 -24 2 -2 -6 -19 -7 -43 -3
-24 4 -43 3 -49 -3 -6 -6 -11 -7 -11 -1 0 10 -92 10 -108 0 -6 -3 -12 -3 -14
1 -1 5 -39 6 -83 3z"/>
<path d="M17164 7641 c-11 -24 -11 -104 -1 -118 5 -7 5 -13 1 -13 -5 0 -9 -54
-9 -120 0 -74 4 -120 10 -120 7 0 7 -3 0 -8 -13 -9 -14 -55 0 -64 6 -5 6 -8 0
-8 -14 0 -14 -240 0 -240 7 0 7 -3 0 -8 -13 -9 -14 -55 0 -64 6 -5 6 -8 0 -8
-14 0 -14 -240 0 -240 7 0 7 -3 0 -8 -14 -9 -14 -125 -1 -134 8 -6 8 -10 1
-15 -14 -11 -14 -455 0 -465 7 -6 7 -10 0 -15 -14 -11 -14 -455 0 -465 7 -6 7
-10 0 -15 -12 -9 -13 -212 -1 -231 4 -6 3 -12 -1 -12 -12 0 -10 -234 2 -242 7
-5 7 -8 0 -8 -6 0 -10 -19 -10 -42 l0 -43 315 -3 c173 -1 325 0 337 3 19 4 21
9 13 29 -5 13 -6 27 -3 30 9 9 10 50 1 63 -5 6 -5 14 1 17 6 4 7 15 1 30 -4
12 -4 29 0 36 5 9 4 20 -2 27 -6 8 -7 13 -1 13 10 0 8 50 -2 77 -2 7 0 15 6
19 7 4 6 10 -1 19 -6 7 -7 15 -3 18 10 6 9 59 -1 75 -4 7 -2 12 6 12 9 0 9 3
-2 10 -10 6 -11 10 -3 10 9 0 10 7 3 24 -5 13 -6 27 -3 30 9 9 10 50 1 63 -5
6 -5 14 1 17 6 4 7 15 1 30 -4 12 -4 29 0 36 5 9 4 20 -2 27 -6 8 -7 13 -1 13
10 0 8 50 -2 77 -2 7 0 15 6 19 7 4 6 10 -1 19 -6 7 -7 15 -3 18 9 6 9 59 0
74 -4 6 -5 18 -2 25 5 12 50 14 248 15 133 1 271 4 307 7 67 5 83 7 182 27 32
6 60 11 64 9 4 -1 10 2 13 7 6 9 84 35 97 33 4 -1 10 2 13 7 3 4 31 21 61 37
30 16 62 35 71 42 8 8 18 14 21 14 13 0 126 104 163 150 52 65 125 202 125
234 0 9 4 16 9 16 6 0 8 9 6 20 -2 11 0 20 5 20 4 0 7 11 5 25 -1 14 1 25 5
25 9 0 24 140 23 210 -1 65 -14 170 -23 196 -5 12 -6 25 -3 28 3 3 0 12 -7 21
-7 8 -10 22 -6 30 3 8 2 15 -3 15 -4 0 -13 19 -20 42 -7 22 -23 57 -35 77 -12
20 -28 48 -35 64 -8 15 -18 27 -23 27 -4 0 -8 6 -8 13 0 19 -124 135 -192 179
-70 46 -167 93 -213 104 -16 4 -34 9 -40 13 -12 6 -41 13 -70 15 -11 0 -22 4
-25 8 -4 4 -27 8 -53 9 -25 1 -45 5 -43 8 2 3 -19 7 -47 7 -29 1 -75 3 -103 4
-27 2 -55 0 -62 -4 -7 -4 -12 -4 -12 1 0 9 -198 8 -207 -1 -3 -3 -15 0 -26 6
-12 6 -22 7 -24 2 -2 -6 -30 -7 -63 -4 -35 3 -64 2 -70 -4 -6 -6 -10 -6 -10 0
0 8 -137 11 -145 2 -2 -2 -34 -1 -70 2 -37 3 -69 2 -71 -2 -3 -5 -15 -3 -27 3
-13 8 -22 8 -24 2 -2 -6 -19 -7 -43 -3 -24 4 -43 3 -49 -3 -6 -6 -11 -7 -11
-1 0 9 -96 11 -106 2 -2 -3 -24 -2 -49 2 -35 5 -46 3 -51 -9z m1134 -534 c54
-9 135 -52 175 -93 67 -69 96 -198 74 -329 -14 -89 -75 -168 -163 -211 -67
-33 -81 -34 -347 -37 l-219 -3 4 28 c3 16 1 31 -4 34 -5 3 -5 10 -1 17 11 17
10 57 -2 57 -5 0 -4 4 4 9 9 6 10 11 2 15 -6 4 -8 13 -4 19 9 15 10 57 1 85
-5 14 -3 22 3 22 8 0 8 4 0 14 -7 8 -8 16 -4 19 10 6 9 59 -1 75 -4 7 -2 12 6
12 9 0 9 3 -2 10 -10 6 -11 10 -3 10 9 0 10 7 3 24 -5 13 -6 26 -4 29 10 10
11 57 2 63 -4 3 -5 10 -2 16 9 14 9 92 0 106 -3 6 2 12 11 14 27 5 433 0 471
-5z"/>
</g>
</svg>
